<svg width="100" height="12" viewBox="0 0 100 12" fill="none" xmlns="http://www.w3.org/2000/svg">
<path d="M3.96154 10.6347H6.84615V3.92321H10.8077V1.4809H0V3.92321H3.96154V10.6347Z" fill="white"/>
<path d="M19.5583 1.4809L14.7506 6.80782V1.4809H11.9621V10.6347H14.4237L19.2314 5.30782V10.6347H22.0198V1.4809H19.5583Z" fill="white"/>
<path d="M26.9201 7.2309H31.4008V10.6347H34.1893V1.4809H31.4008V4.82705H26.9201V1.4809H24.1316V10.6347H26.9201V7.2309Z" fill="white"/>
<path d="M41.9549 10.6347C42.5895 10.6347 43.1665 10.5771 43.7049 10.4232C45.1472 10.0194 46.0895 8.84629 46.0895 7.25013C46.0895 5.7309 45.2818 4.67321 43.9934 4.19244C43.378 3.96167 42.6472 3.94244 41.9549 3.94244H39.0895V1.4809H36.3011V10.6347H41.9549ZM39.0895 6.09629H41.4742C41.8588 6.09629 42.2242 6.09628 42.5511 6.21167C43.0126 6.36552 43.2819 6.75013 43.2819 7.21167C43.2819 7.69244 43.0126 8.09629 42.5703 8.28859C42.2626 8.42321 41.9549 8.42321 41.4742 8.42321H39.0895V6.09629Z" fill="white"/>
<path d="M50.32 7.17321H51.0892L54.4162 10.6347H58.1277L53.4931 5.86552L57.9546 1.4809H54.4546L51.0892 4.92321H50.32V1.4809H47.5315V10.6347H50.32V7.17321Z" fill="white"/>
<path d="M63.8654 1.2309C60.1154 1.2309 57.8654 3.34629 57.8654 6.07705C57.8654 8.80782 60.1154 10.9232 63.8654 10.9232C67.5962 10.9232 69.8462 8.80782 69.8462 6.07705C69.8462 3.34629 67.5962 1.2309 63.8654 1.2309ZM63.8654 8.69244C62 8.69244 60.8077 7.57705 60.8077 6.07705C60.8077 4.57705 62 3.4809 63.8654 3.4809C65.7115 3.4809 66.9231 4.57705 66.9231 6.07705C66.9231 7.57705 65.7115 8.69244 63.8654 8.69244Z" fill="white"/>
<path d="M79.1327 1.88475V0.96167H76.3442V1.88475C72.8442 1.96167 70.748 3.44244 70.748 6.05782C70.748 8.67321 72.8442 10.0386 76.3442 10.1155V11.0386H79.1327V10.1155C82.6519 10.0386 84.748 8.67321 84.748 6.05782C84.748 3.44244 82.6519 1.96167 79.1327 1.88475ZM76.3442 8.15398C74.4211 8.07705 73.575 7.28859 73.575 6.05782C73.575 4.82705 74.4211 3.94244 76.3442 3.86552V8.15398ZM79.1327 8.15398V3.86552C81.075 3.94244 81.9019 4.82705 81.9019 6.05782C81.9019 7.28859 81.075 8.07705 79.1327 8.15398Z" fill="white"/>
<path d="M94.0252 1.88475V0.96167H91.2368V1.88475C87.7368 1.96167 85.6406 3.44244 85.6406 6.05782C85.6406 8.67321 87.7368 10.0386 91.2368 10.1155V11.0386H94.0252V10.1155C97.5445 10.0386 99.6406 8.67321 99.6406 6.05782C99.6406 3.44244 97.5445 1.96167 94.0252 1.88475ZM91.2368 8.15398C89.3137 8.07705 88.4675 7.28859 88.4675 6.05782C88.4675 4.82705 89.3137 3.94244 91.2368 3.86552V8.15398ZM94.0252 8.15398V3.86552C95.9675 3.94244 96.7945 4.82705 96.7945 6.05782C96.7945 7.28859 95.9675 8.07705 94.0252 8.15398Z" fill="white"/>
</svg>
